# xmcd CD database file
#
# Track frame offsets:
#	150
#	21032
#	35801
#	50917
#	72482
#	90695
#	110110
#	124185
#	144134
#	161449
#	163861
#	179466
#	197274
#
# Disc length: 2901 seconds
#
# Revision: 0
# Processed by: cddbd v1.4PL0 Copyright (c) Steve Scherf et al.
# Submitted via: CDex 1.50
#
DISCID=b90b530d
DTITLE=Mirko Knez and Band - Voodoo Nights
DYEAR=2002
DGENRE=Blues
TTITLE0=Voodoo Nights
TTITLE1=Bad, Bad, Leroy Brown (mit Martin Schmitt)
TTITLE2=Was'n Sommer
TTITLE3=Nobody Knows You
TTITLE4=She Just Wants To Dance (mit Ludwig Seuss)
TTITLE5=Ghost Of The Bottles
TTITLE6=One Aight Down
TTITLE7=Put The Blues Back On You
TTITLE8=Get The Funk Out (mit Sven Roeren)
TTITLE9=Elvis und der Schwabe
TTITLE10=Blues With A Knick
TTITLE11=Let The Good Times Roll (mit Kerstin Frank)
TTITLE12='Hidden Track'
EXTD=YEAR: 2002
EXTT0=
EXTT1=
EXTT2=
EXTT3=
EXTT4=
EXTT5=
EXTT6=
EXTT7=
EXTT8=
EXTT9=
EXTT10=
EXTT11=
EXTT12=
PLAYORDER=
